HIERARCHY
ROOT ui
{
	 OFFSET 0 0 0
	 CHANNELS 3 XPosition YPosition Z Position
	 EndSite
	 {
	 OFFSET 0 -1 0
	 }
}
ROOT li
{
	 OFFSET 0 0 0
	 CHANNELS 3 XPosition YPosition Z Position
	 EndSite
	 {
	 OFFSET 0 -1 0
	 }
}
ROOT ul
{
	 OFFSET 0 0 0
	 CHANNELS 3 XPosition YPosition Z Position
	 EndSite
	 {
	 OFFSET 0 -1 0
	 }
}
ROOT ll
{
	 OFFSET 0 0 0
	 CHANNELS 3 XPosition YPosition Z Position
	 EndSite
	 {
	 OFFSET 0 -1 0
	 }
}
ROOT tt
{
	 OFFSET 0 0 0
	 CHANNELS 3 XPosition YPosition Z Position
	 EndSite
	 {
	 OFFSET 0 -1 0
	 }
}
ROOT tb
{
	 OFFSET 0 0 0
	 CHANNELS 3 XPosition YPosition Z Position
	 EndSite
	 {
	 OFFSET 0 -1 0
	 }
}
ROOT td
{
	 OFFSET 0 0 0
	 CHANNELS 3 XPosition YPosition Z Position
	 EndSite
	 {
	 OFFSET 0 -1 0
	 }
}
ROOT v
{
	 OFFSET 0 0 0
	 CHANNELS 3 XPosition YPosition Z Position
	 EndSite
	 {
	 OFFSET 0 -1 0
	 }
}
ROOT bn
{
	 OFFSET 0 0 0
	 CHANNELS 3 XPosition YPosition Z Position
	 EndSite
	 {
	 OFFSET 0 -1 0
	 }
}
MOTION
Frames: 30
Frame Time: 0.002
0.007658366203308105	-0.004455501079559326	0		0.6695785522460938	-2.675441650390625	0		-0.8647566528320313	0.4273419189453125	0		-0.06623269653320313	-3.39765478515625	0		1.5418575439453126	-1.2418519287109375	0		2.616617431640625	0.2626423645019531	0		4.19868115234375	0.7916383056640625	0		5.79771240234375	0.4730338439941406	0		-0.26712039184570313	5.97035302734375	0		
0.01702486038208008	0.00560383415222168	0		0.6630778198242188	-2.661046630859375	0		-0.8605186157226562	0.43148809814453126	0		-0.04378716278076172	-3.386860595703125	0		1.5420455322265625	-1.2415802001953125	0		2.60951611328125	0.25007814025878905	0		4.18783447265625	0.79218115234375	0		5.79369580078125	0.4911445007324219	0		-0.2670630187988281	5.970591796875	0		
0.01415138053894043	0.0029403419494628906	0		0.6841657104492187	-2.66818408203125	0		-0.8644197387695313	0.4278294677734375	0		-0.061658065795898435	-3.392220703125	0		1.5401939697265625	-1.2442369384765626	0		2.62669482421875	0.2500548553466797	0		4.1838662109375	0.7856128540039062	0		5.79727880859375	0.47778594970703125	0		-0.2802025451660156	5.96012744140625	0		
0.019251167297363283	-0.0018553290367126466	0		0.6584396362304688	-2.666341796875	0		-0.8693050537109375	0.4242208251953125	0		-0.035584732055664064	-3.40144189453125	0		1.5373575439453124	-1.2468446044921875	0		2.573822509765625	0.24747845458984374	0		4.1840546875	0.7859896850585938	0		5.79397314453125	0.492498779296875	0		-0.28108328247070313	5.961447265625	0		
0.005360462188720703	-0.00623891019821167	0		0.6586919555664063	-2.665998779296875	0		-0.939070068359375	0.426953857421875	0		-0.07702823638916016	-3.386263916015625	0		1.5444227294921875	-1.2546268310546875	0		2.590779541015625	0.2355121612548828	0		4.19526708984375	0.7871691284179687	0		5.802375	0.45649920654296877	0		-0.27999636840820313	5.96075439453125	0		
-0.035208324432373046	0.005945400238037109	0		0.6478773193359375	-2.668407470703125	0		-0.863831298828125	0.4287798767089844	0		-0.058857337951660156	-3.3902705078125	0		1.5613773193359375	-1.2675848388671875	0		2.61376953125	0.22544920349121095	0		4.17757958984375	0.7939576416015625	0		5.808453125	0.4846763000488281	0		-0.2627749938964844	5.9667626953125	0		
0.023899543762207032	0.002136121034622192	0		0.677174560546875	-2.6646015625	0		-0.8595774536132812	0.43306698608398436	0		-0.08443660736083984	-3.38036572265625	0		1.5646578369140625	-1.2632396240234376	0		2.617107421875	0.23381015014648437	0		4.1997431640625	0.7939609985351562	0		5.80561376953125	0.4717979431152344	0		-0.2646268310546875	5.9701806640625	0		
-0.03487813568115234	0.006731452941894531	0		0.6624277954101563	-2.660884521484375	0		-0.86859375	0.42564227294921875	0		-0.03822538757324219	-3.379890625	0		1.5549093017578124	-1.2586103515625	0		2.58989599609375	0.2168027801513672	0		4.1918828125	0.7945902099609375	0		5.792884765625	0.47327761840820315	0		-0.2797450256347656	5.96188623046875	0		
0.0200993595123291	4.779599979519844E-5	0		0.6854697265625	-2.6659130859375	0		-0.868489990234375	0.42605477905273437	0		-0.09789423370361328	-3.370258056640625	0		1.5687315673828126	-1.2734427490234375	0		2.607757080078125	0.2049036865234375	0		4.202716796875	0.7818551635742188	0		5.79709765625	0.4566488342285156	0		-0.292958984375	5.9505712890625	0		
-0.039007808685302736	-0.007319753170013428	0		0.6963634033203125	-2.675682373046875	0		-0.876593017578125	0.41864743041992186	0		-0.06685422515869141	-3.373442138671875	0		1.5688106689453125	-1.272980712890625	0		2.6007978515625	0.20452069091796876	0		4.19177099609375	0.7825736694335937	0		5.79781201171875	0.45232122802734376	0		-0.27877667236328124	5.960724609375	0		
-0.04083602523803711	0.0011726779937744141	0		0.6485771484375	-2.66625439453125	0		-0.863348876953125	0.4308266906738281	0		-0.12048976135253907	-3.356904296875	0		1.571896240234375	-1.269568359375	0		2.623821044921875	0.2055432586669922	0		4.213029296875	0.7956535034179687	0		5.80078662109375	0.4669277038574219	0		-0.2636409912109375	5.97087158203125	0		
0.015232222557067871	0.006507833003997803	0		0.6896782836914063	-2.660609619140625	0		-0.8633948974609374	0.43128118896484374	0		-0.05656675338745117	-3.360729248046875	0		1.578706787109375	-1.2772259521484375	0		2.606378173828125	0.18638301086425782	0		4.2019814453125	0.79638623046875	0		5.79778955078125	0.45414529418945315	0		-0.277967529296875	5.96061669921875	0		
0.020043481826782228	0.0018792599439620972	0		0.671400390625	-2.670767333984375	0		-0.8685657958984375	0.42784475708007813	0		-0.08549332427978516	-3.353676513671875	0		1.578632568359375	-1.2767391357421876	0		2.651159423828125	0.1799759521484375	0		4.20876416015625	0.7907598266601562	0		5.7983974609375	0.4498375244140625	0		-0.29231307983398436	5.95136865234375	0		
0.005818626880645752	-0.0023642230033874513	0		0.68543505859375	-2.663570556640625	0		-0.8727763671875	0.42439199829101565	0		-0.06643343353271484	-3.34558740234375	0		1.578516845703125	-1.2762513427734374	0		2.5909423828125	0.1766811065673828	0		4.20451025390625	0.7853528442382812	0		5.79947509765625	0.4195436096191406	0		-0.29249334716796876	5.95183935546875	0		
0.010553062438964844	-0.006991186141967773	0		0.6364223022460938	-2.65610888671875	0		-0.8770233154296875	0.42093893432617185	0		-0.10952251434326171	-3.342251220703125	0		1.57836279296875	-1.2757664794921875	0		2.608531982421875	0.16481436157226562	0		4.21619677734375	0.7786182861328125	0		5.7950078125	0.4119998474121094	0		-0.27752587890625	5.96100634765625	0		
0.013432090759277343	-0.002584662914276123	0		0.6720110473632812	-2.6673583984375	0		-0.8531915893554688	0.4229178466796875	0		-0.1344746551513672	-3.3302841796875	0		1.476271484375	-1.2692392578125	0		2.63112451171875	0.15483929443359376	0		4.22084912109375	0.7720151977539063	0		5.79783154296875	0.4265746154785156	0		-0.261609375	5.96914892578125	0		
-0.02965797996520996	0.005737689018249512	0		0.6421748657226563	-2.6472958984375	0		-0.8642302856445313	0.4335916748046875	0		-0.10837862396240235	-3.314350830078125	0		1.6066513671875	-1.2893992919921875	0		2.62190625	0.15649485778808594	0		4.21160693359375	0.77268017578125	0		5.79191357421875	0.4225171203613281	0		-0.2770610046386719	5.96091015625	0		
0.01903170585632324	0.0042029452323913575	0		0.6866571044921875	-2.65974462890625	0		-0.8777510986328125	0.4223004760742187	0		-0.138556640625	-3.30930029296875	0		1.5944197998046874	-1.286701416015625	0		2.608165771484375	0.13422264099121095	0		4.20794189453125	0.7542138671875	0		5.78646337890625	0.3924523620605469	0		-0.2925677490234375	5.95166162109375	0		
-0.04045946502685547	-0.0031742150783538817	0		0.6603702392578125	-2.6577841796875	0		-0.8780750122070312	0.42273321533203123	0		-0.11866956329345703	-3.299268310546875	0		1.5988604736328125	-1.2983572998046875	0		2.62969775390625	0.12722823333740235	0		4.20735546875	0.7416685791015625	0		5.77636474609375	0.4075685119628906	0		-0.2929127197265625	5.9520966796875	0		
0.009147239685058593	-0.004758864879608154	0		0.6839495849609375	-2.66084423828125	0		-0.8784393920898438	0.4231499938964844	0		-0.18448796081542967	-3.271529296875	0		1.5954412841796874	-1.3008726806640625	0		2.63905126953125	0.11345697021484374	0		4.2257255859375	0.7287208862304687	0		5.78273583984375	0.34743701171875	0		-0.278094970703125	5.9622119140625	0		
-0.04122225570678711	-0.002355910062789917	0		0.6465223999023437	-2.661700439453125	0		-0.8680428466796875	0.41332867431640624	0		-0.13501181030273438	-3.278133056640625	0		1.6049619140625	-1.3046702880859375	0		2.6386513671875	0.11386135101318359	0		4.22230517578125	0.7281887817382813	0		5.783791015625	0.3376998291015625	0		-0.2785062255859375	5.96261083984375	0		
0.017518363952636718	0.005834389209747315	0		0.68720947265625	-2.6561474609375	0		-0.8692906494140625	0.42272265625	0		-0.1699473419189453	-3.253058837890625	0		1.5976771240234375	-1.2971527099609375	0		2.653798095703125	0.09292405700683594	0		4.22463427734375	0.7165125122070313	0		5.77363037109375	0.3544160461425781	0		-0.2779815673828125	5.96096728515625	0		
0.007873425006866455	-0.0036310598850250245	0		0.6847247924804688	-2.657754638671875	0		-0.8797146606445313	0.4242746887207031	0		-0.14613587951660156	-3.24019140625	0		1.5921121826171876	-1.3026986083984375	0		2.658210693359375	0.08617798614501954	0		4.2329052734375	0.7026881713867188	0		5.7700595703125	0.3067374267578125	0		-0.2926278991699219	5.95160205078125	0		
0.007420528888702393	-0.003306401014328003	0		0.6822313232421875	-2.6593896484375	0		-0.8852467651367187	0.4207008056640625	0		-0.21307429504394532	-3.213526611328125	0		1.588599365234375	-1.3053135986328126	0		2.650558349609375	0.07664442443847656	0		4.230091796875	0.6850553588867188	0		5.7545751953125	0.28554010009765624	0		-0.29307904052734374	5.9519267578125	0		
0.006969853878021241	-0.003010996103286743	0		0.6588833618164063	-2.653634033203125	0		-0.8739002685546875	0.4107580871582031	0		-0.17643490600585937	-3.208974853515625	0		1.592905517578125	-1.3171175537109374	0		2.643847900390625	0.06406056213378906	0		4.22376318359375	0.6914662475585938	0		5.7505302734375	0.26718978881835936	0		-0.29158505249023436	5.94918310546875	0		
0.006528525829315185	-0.0027462320327758787	0		0.63554345703125	-2.647909423828125	0		-0.940227294921875	0.41734823608398436	0		-0.2244090576171875	-3.184750732421875	0		1.5976019287109375	-1.3099566650390626	0		2.694296142578125	0.05829875946044922	0		4.23949609375	0.6503922729492188	0		5.75129833984375	0.22605335998535156	0		-0.26262261962890626	5.96886181640625	0		
0.01530077075958252	0.007304366111755371	0		0.6651865844726562	-2.6442802734375	0		-0.8706875610351562	0.415177734375	0		-0.17736868286132812	-3.161465576171875	0		1.597173095703125	-1.30972607421875	0		2.66481494140625	0.05611053466796875	0		4.23495068359375	0.6447000732421875	0		5.7401396484375	0.20793531799316406	0		-0.29243515014648436	5.94968212890625	0		
0.005692636013031006	-0.0023116860389709474	0		0.6508755493164062	-2.63880029296875	0		-0.88697216796875	0.4217007446289063	0		-0.2452882080078125	-3.1359033203125	0		1.591621826171875	-1.316426025390625	0		2.66792333984375	0.03223114013671875	0		4.24116015625	0.62575634765625	0		5.7301044921875	0.1516375427246094	0		-0.29283282470703126	5.9498837890625	0		
0.005301713943481445	-0.0021436059474945067	0		0.6494391479492188	-2.640613037109375	0		-0.8855233154296875	0.41383212280273435	0		-0.2611000671386719	-3.106419189453125	0		1.5891683349609376	-1.3192205810546875	0		2.6782490234375	0.01817550277709961	0		4.24150927734375	0.6128980712890625	0		5.71824365234375	0.1317076416015625	0		-0.2932112121582031	5.950052734375	0		
-0.045041408538818356	-5.5780000984668735E-6	0		0.6339224243164062	-2.647177978515625	0		-0.8809971313476562	0.40886856079101563	0		-0.2960111389160156	-3.08258642578125	0		1.585732421875	-1.322029296875	0		2.7276044921875	0.004301798820495605	0		4.2488544921875	0.59886474609375	0		5.72196875	0.09711609649658202	0		-0.27935330200195313	5.96090380859375	0		
